<svg width="30" height="29" viewBox="0 0 30 29" fill="none" xmlns="http://www.w3.org/2000/svg">
<path fill-rule="evenodd" clip-rule="evenodd" d="M23.9502 0.00481316C23.9502 0.00481316 6.25555 -0.670406 1.91879 13.9741C1.91879 13.9741 -0.509844 20.9165 0.0975005 28.5137C0.0975005 28.5137 1.66979 21.8276 10.6793 16.9283C10.6793 16.9283 11.677 18.0265 13.2383 18.2791C13.2383 18.2791 18.0093 19.1445 17.4009 21.0859C17.4009 21.0859 16.1754 24.5502 22.1718 26.6564L25.6415 27.585C25.6415 27.585 28.3509 25.5642 29.0458 21.9347L30 21.597C30 21.597 28.2131 16.5734 26.9981 13.8724C26.9981 13.8724 26.94 12.2793 27.1357 11.1858L24.7305 6.79978C24.7305 6.79978 27.3328 3.4235 27.42 1.65093L22.3885 2.57998L23.9502 0.00481316Z" fill="#B09225"/>
<path fill-rule="evenodd" clip-rule="evenodd" d="M0.719177 25.0993C0.719177 25.0993 2.83056 12.2112 10.2035 6.11022C10.2035 6.11022 7.00368 7.44522 4.05622 12.2554C4.05622 12.2554 6.61726 3.12017 18.2667 1.65388C18.2667 1.65388 21.1426 1.01827 22.2297 0.893677L20.6726 3.27545C20.6726 3.27545 20.7405 3.90529 21.2084 3.79242L25.9874 2.81148C25.9874 2.81148 24.8393 5.2018 23.5459 6.61175L26.0686 11.2349C26.0686 11.2349 26.0352 12.5394 26.0054 14.3566C26.0017 14.5448 27.0107 15.4459 28.8203 21.0259C28.8203 21.0259 28.1495 21.2933 28.1439 21.3719C28.0688 22.3997 27.4321 24.7832 25.364 26.5987C25.364 26.5987 21.058 25.4364 19.2393 23.7297C18.7587 23.2747 18.21 21.9882 18.5005 21.1971C18.5005 21.1971 18.827 19.1927 16.3169 18.0408L13.0133 16.8979C13.0133 16.8979 11.442 16.1199 11.2183 15.3089C11.2181 15.3089 3.93442 17.994 0.719177 25.0993Z" fill="#164C82"/>
<path fill-rule="evenodd" clip-rule="evenodd" d="M24.7918 13.7946C24.5168 13.2271 24.1254 12.3308 24.1254 12.3308C23.9093 10.0522 23.1353 8.69414 23.1353 8.69414L23.0072 8.4191C22.948 9.79186 22.6963 10.7774 22.6963 10.7774C21.327 6.83528 19.5342 5.77476 18.9112 5.51571C18.6773 5.75486 18.4242 5.9847 18.1587 6.17978L17.8329 6.80386C17.8329 6.80386 16.9964 4.43045 19.6049 2.27295C19.4483 2.32595 19.2845 2.38211 19.1225 2.43715C9.6523 5.85026 6.47704 14.0048 6.18267 14.8131C5.67872 16.3042 5.50336 17.3113 5.50336 17.3113C5.64213 17.1065 5.78517 16.9047 5.93237 16.7058C8.06681 13.5681 9.53924 12.4016 9.53924 12.4016C10.1603 8.5158 13.198 6.90037 14.2492 6.45165C14.4454 6.36797 14.5709 6.3252 14.6009 6.31534C14.6245 6.30511 14.6466 6.2947 14.6702 6.2854C14.6702 6.2854 12.6885 7.54825 11.943 9.71357C11.749 10.2755 11.6666 10.9071 11.7105 11.5929C11.9623 12.683 13.0608 14.5188 13.0608 14.5188C13.574 15.0746 15.3966 15.7403 17.0587 16.2577C18.5624 16.7265 20.0889 16.9729 20.2619 16.9993C20.2814 17.0019 20.3 17.0047 20.3189 17.0069C20.0201 17.3113 17.8764 17.6135 17.6781 17.58C17.6793 17.5811 17.68 17.5823 17.6819 17.583L17.6781 17.5804C19.8925 18.7107 19.9852 19.7978 19.8594 20.2993C19.8295 20.4185 19.783 20.5329 19.7215 20.6393C19.5777 20.9799 19.4316 21.707 20.0887 22.7203C20.3554 23.1311 21.1507 23.6254 22.1605 24.0544L22.5084 23.7885L22.8781 24.1037L22.8854 24.1109C24.3757 24.7531 25.3079 24.582 25.3079 24.582C25.7633 24.5072 26.157 24.0092 26.4324 23.5397C26.4473 23.5127 26.4625 23.4859 26.4774 23.458C26.4766 23.4585 26.4757 23.4589 26.4748 23.4591C27.2216 20.1645 25.2884 15.0631 24.7918 13.7946Z" fill="#C1C3C5"/>
<path fill-rule="evenodd" clip-rule="evenodd" d="M17.8351 3.52875C17.8351 3.52875 16.6855 4.41503 16.0357 5.38574C16.0357 5.38574 16.8221 5.82423 17.7947 6.66886C17.8042 6.70791 17.8202 6.76816 17.8328 6.80368C17.8447 6.78248 17.8594 6.75385 17.8702 6.73283C17.9217 6.77802 17.9742 6.82823 18.0272 6.87584C18.8829 7.65724 19.8464 8.74008 20.5486 10.1151C20.5486 10.1151 22.0279 12.6651 22.0247 14.8143C22.0247 14.8143 20.0889 9.73013 14.9114 6.43883C14.9114 6.43883 16.3954 8.78044 17.7575 12.9312C18.0379 13.7861 18.9393 15.2133 20.2771 16.0836C20.2771 16.0836 13.9435 14.6837 13.5643 10.9567C13.5643 10.9567 13.6073 7.7067 14.691 6.27221C14.691 6.27221 10.5709 6.94743 6.88483 14.0375C6.88464 14.0373 9.19407 6.16528 17.8351 3.52875ZM20.5869 21.4925C20.6799 21.4967 20.9625 21.4772 21.179 21.6327C21.9595 22.1939 22.5225 23.0389 22.7102 23.3448C23.9105 23.7255 24.9794 23.8359 24.9794 23.8359C24.4177 18.1013 22.0121 15.3028 22.0121 15.3028C22.858 17.3682 22.4969 20.6982 22.4969 20.6982L21.8006 19.4625C20.6007 17.4508 18.6572 17.7496 18.6572 17.7496C21.3573 19.4854 19.9502 21.702 19.9502 21.702C20.398 22.2683 21.0804 22.6917 21.7984 23.0052C21.3417 21.9352 20.5869 21.4925 20.5869 21.4925Z" fill="white"/>
<path fill-rule="evenodd" clip-rule="evenodd" d="M22.9453 20.2106C22.9453 20.2106 24.189 20.5997 24.1791 21.1771L24.1661 22.5522C24.1659 22.5522 23.0089 20.8111 22.9453 20.2106ZM20.7156 12.792L20.2264 13.2578L18.6418 10.5876L16.3718 8.35403L16.2902 8.27295L18.0743 10.7873C18.2087 10.9405 18.3499 11.1284 18.4964 11.3385C17.8699 13.2851 19.3615 13.5443 19.8107 13.5789C20.2143 14.3453 20.4979 14.9457 20.4979 14.9457L20.7156 12.792Z" fill="#164C82"/>
<path fill-rule="evenodd" clip-rule="evenodd" d="M18.8904 12.3348C18.8904 12.3348 19.7375 12.8838 19.7033 13.1512C19.7033 13.1512 19.2964 13.2485 18.9551 12.9072C18.9551 12.9072 18.7856 12.6791 18.8904 12.3348Z" fill="white"/>
<path fill-rule="evenodd" clip-rule="evenodd" d="M19.6049 2.26929C19.6049 2.26929 14.7813 3.07282 10.899 6.79778C8.97467 8.6438 7.21716 11.2859 6.15942 14.8785C6.15942 14.8785 9.24914 5.74543 19.6049 2.26929ZM16.2885 8.27169L18.6358 10.578L20.2263 13.258L20.7149 12.7913L20.271 12.8417L18.8454 10.368L16.2885 8.27169Z" fill="#B09225"/>
<path fill-rule="evenodd" clip-rule="evenodd" d="M22.4353 4.3676C22.5654 4.70949 22.6723 5.05977 22.7553 5.41604C22.95 4.82543 24.2746 3.91144 24.2746 3.91144L22.4353 4.3676Z" fill="#C1C3C5"/>
<path fill-rule="evenodd" clip-rule="evenodd" d="M5.92566 16.7148C5.92566 16.7148 8.40673 13.7848 9.97865 13.0305C9.97865 13.0305 10.2059 9.06104 13.2445 7.0815C13.5256 6.89833 14.2983 6.43956 14.6081 6.31311C14.6081 6.31311 14.4737 6.3557 14.2492 6.45165C13.198 6.90037 10.1603 8.5158 9.53923 12.4016C9.53923 12.4016 8.06382 13.5707 5.92566 16.7148ZM11.7097 11.5912C11.7097 11.5908 11.7103 11.7794 11.7373 11.9222C12.0467 13.5388 12.3759 14.9097 12.7255 15.189C12.7255 15.189 14.18 15.907 17.3955 16.5578C19.2314 16.9294 20.0363 16.9824 20.2782 17.0017C20.2782 17.0017 18.6548 16.7559 17.0585 16.2575C15.3964 15.7403 13.574 15.0746 13.0606 14.5186C13.0606 14.5188 11.9608 12.6811 11.7097 11.5912ZM19.8591 20.2993C19.9848 19.7978 19.8922 18.7107 17.6778 17.5804C17.6778 17.5804 19.9771 19.1051 19.8258 20.2725C19.812 20.375 19.7731 20.4996 19.7194 20.6419C19.7192 20.6419 19.8105 20.4951 19.8591 20.2993ZM22.8824 24.1096C22.8824 24.1096 23.1889 24.831 25.2636 25.0402C25.2636 25.0402 26.5458 24.2906 26.8515 22.6696C26.8515 22.6696 26.1999 24.4362 25.3075 24.5822C25.3075 24.5822 24.3742 24.7532 22.8824 24.1096Z" fill="#B09225"/>
<path fill-rule="evenodd" clip-rule="evenodd" d="M27.3825 20.3199C27.3825 20.3199 27.2556 19.4409 26.7076 18.3945C26.7076 18.3945 25.9216 16.0585 25.01 14.2104C25.0198 14.2243 25.0282 14.2357 25.0343 14.242L24.9131 11.6484L23.1351 8.69391C23.1351 8.69391 23.9091 10.0518 24.1252 12.3305C24.1252 12.3305 24.4608 13.0991 24.7281 13.6637C24.725 13.6574 24.7217 13.6511 24.7182 13.6451C24.7182 13.6451 27.3198 19.739 26.4739 23.4647C26.4739 23.4647 26.7375 22.9948 26.85 22.6706C26.8694 22.5834 26.8871 22.4873 26.9038 22.3791C26.9663 21.993 27.033 21.5099 27.0447 20.7805C27.0451 20.7809 27.4247 20.3618 27.3825 20.3199Z" fill="white"/>
</svg>
