<svg width="25" height="15" viewBox="0 0 25 15" fill="none" xmlns="http://www.w3.org/2000/svg">
<path d="M7.04525 5.42952C7.04525 5.73717 7.07851 5.98661 7.13671 6.16954C7.20323 6.35246 7.28637 6.55201 7.40278 6.7682C7.44435 6.83471 7.46098 6.90123 7.46098 6.95943C7.46098 7.04258 7.4111 7.12573 7.303 7.20888L6.77918 7.5581C6.70434 7.60799 6.62951 7.63293 6.56299 7.63293C6.47984 7.63293 6.3967 7.59136 6.31355 7.51652C6.19714 7.3918 6.09737 7.25877 6.01422 7.12573C5.93107 6.98438 5.84792 6.8264 5.75646 6.63516C5.10791 7.40012 4.29307 7.78259 3.31193 7.78259C2.61349 7.78259 2.0564 7.58304 1.64898 7.18393C1.24156 6.78483 1.03369 6.25268 1.03369 5.5875C1.03369 4.88075 1.28313 4.30703 1.79033 3.87467C2.29753 3.4423 2.97103 3.22612 3.82744 3.22612C4.11014 3.22612 4.40116 3.25106 4.70881 3.29264C5.01645 3.33421 5.33241 3.40073 5.665 3.47556V2.86858C5.665 2.23666 5.53196 1.79598 5.27421 1.53823C5.00814 1.28047 4.55914 1.15575 3.91891 1.15575C3.62789 1.15575 3.32856 1.18901 3.02091 1.26384C2.71327 1.33867 2.41394 1.43013 2.12292 1.54654C1.98989 1.60474 1.89011 1.638 1.83191 1.65463C1.7737 1.67126 1.73213 1.67958 1.69887 1.67958C1.58246 1.67958 1.52426 1.59643 1.52426 1.42182V1.0144C1.52426 0.881362 1.54089 0.781585 1.58246 0.723382C1.62404 0.665179 1.69887 0.606976 1.81528 0.548773C2.10629 0.399107 2.45551 0.274386 2.86293 0.174609C3.27036 0.0665179 3.70272 0.0166295 4.16003 0.0166295C5.14949 0.0166295 5.87287 0.241127 6.33849 0.690123C6.7958 1.13912 7.02862 1.82093 7.02862 2.73555V5.42952H7.04525ZM3.66946 6.69336C3.94385 6.69336 4.22655 6.64348 4.52588 6.5437C4.82521 6.44392 5.09128 6.261 5.31578 6.01156C5.44882 5.85358 5.54859 5.67897 5.59848 5.47941C5.64837 5.27986 5.68163 5.03873 5.68163 4.75603V4.40681C5.4405 4.34861 5.18275 4.29872 4.91667 4.26546C4.6506 4.2322 4.39285 4.21557 4.13509 4.21557C3.578 4.21557 3.17058 4.32366 2.89619 4.54816C2.62181 4.77266 2.48877 5.08862 2.48877 5.50436C2.48877 5.89515 2.58855 6.18616 2.79642 6.38572C2.99597 6.59359 3.28699 6.69336 3.66946 6.69336ZM10.3462 7.59136C10.1965 7.59136 10.0968 7.56641 10.0302 7.50821C9.96372 7.45832 9.90552 7.34191 9.85563 7.18393L7.90166 0.756641C7.85178 0.590346 7.82683 0.482255 7.82683 0.424052C7.82683 0.291016 7.89335 0.216183 8.02639 0.216183H8.84123C8.99921 0.216183 9.1073 0.241127 9.16551 0.299331C9.23202 0.349219 9.28191 0.465625 9.3318 0.623605L10.7287 6.12796L12.0258 0.623605C12.0673 0.457311 12.1172 0.349219 12.1838 0.299331C12.2503 0.249442 12.3667 0.216183 12.5163 0.216183H13.1815C13.3395 0.216183 13.4476 0.241127 13.5141 0.299331C13.5806 0.349219 13.6388 0.465625 13.6721 0.623605L14.9858 6.19448L16.4243 0.623605C16.4742 0.457311 16.5324 0.349219 16.5906 0.299331C16.6571 0.249442 16.7652 0.216183 16.9148 0.216183H17.6881C17.8211 0.216183 17.896 0.282701 17.896 0.424052C17.896 0.465625 17.8877 0.507199 17.8794 0.557087C17.871 0.606976 17.8544 0.673494 17.8211 0.764956L15.8173 7.19225C15.7674 7.35854 15.7092 7.46663 15.6427 7.51652C15.5762 7.56641 15.4681 7.59967 15.3267 7.59967H14.6117C14.4537 7.59967 14.3456 7.57473 14.2791 7.51652C14.2126 7.45832 14.1543 7.35023 14.1211 7.18393L12.8323 1.82093L11.5518 7.17562C11.5103 7.34191 11.4604 7.45 11.3939 7.50821C11.3273 7.56641 11.2109 7.59136 11.0613 7.59136H10.3462ZM21.0306 7.81585C20.5983 7.81585 20.1659 7.76596 19.7502 7.66619C19.3344 7.56641 19.0102 7.45832 18.794 7.3336C18.6609 7.25877 18.5695 7.17562 18.5362 7.10079C18.503 7.02595 18.4863 6.94281 18.4863 6.86797V6.44392C18.4863 6.26931 18.5528 6.18616 18.6776 6.18616C18.7275 6.18616 18.7773 6.19448 18.8272 6.21111C18.8771 6.22774 18.952 6.261 19.0351 6.29426C19.3178 6.41898 19.6254 6.51875 19.9497 6.58527C20.2823 6.65179 20.6066 6.68505 20.9392 6.68505C21.463 6.68505 21.8704 6.59359 22.1531 6.41066C22.4358 6.22774 22.5855 5.96167 22.5855 5.62076C22.5855 5.38795 22.5107 5.19671 22.361 5.03873C22.2113 4.88075 21.9286 4.7394 21.5212 4.60636L20.3156 4.2322C19.7086 4.04096 19.2596 3.75826 18.9852 3.3841C18.7108 3.01825 18.5695 2.61083 18.5695 2.17846C18.5695 1.82924 18.6443 1.5216 18.794 1.25553C18.9436 0.989454 19.1432 0.756641 19.3926 0.573717C19.6421 0.382478 19.9248 0.241127 20.2574 0.141351C20.59 0.0415737 20.9392 0 21.305 0C21.4879 0 21.6792 0.00831474 21.8621 0.033259C22.0534 0.0582032 22.228 0.0914621 22.4026 0.124721C22.5689 0.166295 22.7268 0.207868 22.8765 0.257757C23.0262 0.307645 23.1426 0.357534 23.2257 0.407422C23.3421 0.47394 23.4253 0.540458 23.4752 0.615291C23.5251 0.681808 23.55 0.773271 23.55 0.889677V1.28047C23.55 1.45508 23.4835 1.54654 23.3588 1.54654C23.2922 1.54654 23.1842 1.51328 23.0428 1.44676C22.5689 1.23058 22.0367 1.12249 21.4464 1.12249C20.9724 1.12249 20.5983 1.19732 20.3405 1.3553C20.0828 1.51328 19.9497 1.75441 19.9497 2.09531C19.9497 2.32813 20.0329 2.52768 20.1992 2.68566C20.3655 2.84364 20.6731 3.00162 21.1138 3.14297L22.2945 3.51713C22.8931 3.70837 23.3255 3.97444 23.5833 4.31535C23.841 4.65625 23.9657 5.04705 23.9657 5.47941C23.9657 5.83695 23.8909 6.16122 23.7496 6.44392C23.5999 6.72662 23.4003 6.97607 23.1426 7.17562C22.8848 7.38349 22.5772 7.53315 22.2196 7.64124C21.8455 7.75765 21.4547 7.81585 21.0306 7.81585Z" fill="black"/>
<path d="M22.6021 11.8568C19.8666 13.8773 15.8921 14.9499 12.4748 14.9499C7.68548 14.9499 3.37013 13.1789 0.110754 10.2354C-0.147003 10.0026 0.0858095 9.68667 0.393455 9.86959C3.9189 11.915 8.26751 13.1539 12.7658 13.1539C15.8007 13.1539 19.1349 12.522 22.203 11.2249C22.6603 11.017 23.0511 11.5242 22.6021 11.8568ZM23.7412 10.5597C23.392 10.1107 21.4297 10.3435 20.5401 10.4516C20.274 10.4849 20.2324 10.2521 20.4735 10.0775C22.0367 8.97992 24.606 9.29588 24.9053 9.66172C25.2046 10.0359 24.8222 12.6051 23.3588 13.8357C23.1343 14.027 22.9181 13.9272 23.0179 13.6777C23.3504 12.8546 24.0905 11.0004 23.7412 10.5597Z" fill="#FF9900"/>
</svg>
