<svg width="25" height="25" viewBox="0 0 25 25" fill="none" xmlns="http://www.w3.org/2000/svg">
<path d="M12.5 1.38062e-08C10.8586 -7.7126e-05 9.23316 0.323152 7.71663 0.951233C6.20011 1.57931 4.82214 2.49994 3.6614 3.66056C2.50067 4.82118 1.57991 6.19906 0.951683 7.71552C0.323458 9.23198 7.60434e-05 10.8573 1.40847e-07 12.4988C-0.000246296 14.1404 0.322898 15.766 0.950979 17.2828C1.57906 18.7995 2.49977 20.1777 3.66054 21.3386C4.8213 22.4994 6.19938 23.4203 7.71607 24.0485C9.23276 24.6768 10.8583 25.0001 12.5 25C14.1417 25.0001 15.7672 24.6768 17.2839 24.0485C18.8006 23.4203 20.1787 22.4994 21.3395 21.3386C22.5002 20.1777 23.4209 18.7995 24.049 17.2828C24.6771 15.766 25.0002 14.1404 25 12.4988C24.9999 10.8573 24.6765 9.23198 24.0483 7.71552C23.4201 6.19906 22.4993 4.82118 21.3386 3.66056C20.1779 2.49994 18.7999 1.57931 17.2834 0.951233C15.7668 0.323152 14.1414 -7.71322e-05 12.5 1.38062e-08ZM11.6365 5.65917H19.501L11.6047 11.2275H17.0034L5.49902 19.3384L7.99657 13.7725L9.13894 11.2275L11.6365 5.65917Z" fill="#009485"/>
</svg>
