<svg width="30" height="30" viewBox="0 0 30 30" fill="none" xmlns="http://www.w3.org/2000/svg">
<path d="M21.4501 7.23921C20.4177 7.99947 19.4123 8.78963 18.4293 9.60373C19.4164 9.65641 20.4022 9.7319 21.3776 9.83023C22.1406 9.05005 22.9278 8.28716 23.7365 7.54065C22.9772 7.42646 22.2134 7.32543 21.4501 7.23921ZM0 29.9999C0.685592 29.4143 1.37844 28.8478 2.07762 28.3004C2.9714 26.6934 3.93027 25.1291 4.94681 23.6075L4.94458 23.606C5.22459 23.1869 5.50916 22.7715 5.79783 22.3595C5.79917 22.3575 5.80042 22.3556 5.80177 22.3537C5.80183 22.3537 5.8019 22.3537 5.80196 22.3536C10.0402 16.3051 15.2048 11.0268 21.1719 6.64916L21.2726 6.57541L21.3965 6.58916C22.3811 6.69833 23.3659 6.83389 24.3423 6.98901C25.6001 5.85713 26.9084 4.76461 28.2716 3.72004C28.7984 2.47689 29.3742 1.23582 30 -4.19617e-05C17.0831 6.58138 6.58146 17.0831 0 29.9999ZM20.8137 10.4186C17.4256 13.9729 14.5045 17.8496 12.0894 21.9506C10.2983 21.9748 8.48285 22.0829 6.65085 22.2674C7.47045 21.1181 8.32373 19.9972 9.21062 18.9061C10.0107 18.7935 10.8198 18.6946 11.6185 18.6144L11.7452 18.6016L11.8285 18.5052C12.8413 17.3339 13.9099 16.1893 15.0079 15.0891C15.106 15.1296 15.2132 15.1525 15.326 15.1525C15.7864 15.1525 16.1597 14.7793 16.1597 14.3188C16.1597 13.8584 15.7864 13.4851 15.326 13.4851C14.8655 13.4851 14.4923 13.8584 14.4923 14.3188C14.4923 14.4313 14.5152 14.5382 14.5555 14.6361C13.4765 15.7172 12.4258 16.8407 11.4276 17.9904C10.8885 18.0458 10.3459 18.1115 9.80418 18.1816C12.2089 15.3062 14.8504 12.6441 17.7082 10.2088C18.7455 10.2526 19.7845 10.3233 20.8137 10.4186Z" fill="#488ECC"/>
<path d="M12.6716 8.64132C11.3404 9.71031 10.0448 10.8291 8.78754 11.9964C8.81055 13.103 8.86392 14.2071 8.94069 15.3002C10.1155 13.9902 11.3383 12.7255 12.6075 11.5099C12.6081 10.5606 12.6298 9.60209 12.6716 8.64132ZM8.06141 12.6769C6.90265 13.7832 5.77623 14.9292 4.68781 16.1176C4.71383 17.5119 4.78286 18.8905 4.89347 20.2513C5.95898 18.8172 7.07897 17.4281 8.24804 16.0844C8.15643 14.9604 8.09627 13.8202 8.06141 12.6769ZM13.2503 10.9026C14.6224 9.62152 16.0465 8.39669 17.5186 7.23045C17.5629 6.47613 17.6208 5.71652 17.6915 4.95715C16.2033 5.95156 14.7491 7.00106 13.3353 8.10884C13.2868 9.0428 13.2595 9.9762 13.2503 10.9026ZM18.2623 4.58153C20.7755 2.93694 23.3849 1.45146 26.0793 0.142315C26.9563 0.0778847 27.8296 0.0310459 28.6986 0.00147438C24.946 1.94403 21.3942 4.21911 18.0801 6.78958C18.1286 6.05555 18.189 5.3177 18.2623 4.58153Z" fill="#242E69"/>
</svg>
