<svg width="48" height="25" viewBox="0 0 48 25" fill="none" xmlns="http://www.w3.org/2000/svg">
<path d="M8.464 24.48C6.82133 24.48 5.41867 24.192 4.256 23.616C3.09333 23.04 2.19733 22.144 1.568 20.928C0.938667 19.712 0.602667 18.1493 0.56 16.24H5.648C5.63733 17.6267 5.84533 18.5867 6.272 19.12C6.69867 19.6427 7.39733 19.904 8.368 19.904C9.008 19.904 9.51467 19.8027 9.888 19.6C10.2613 19.3973 10.528 19.04 10.688 18.528C10.8587 18.0053 10.944 17.2853 10.944 16.368V0.735998H16.08V16.048C16.08 17.936 15.8027 19.504 15.248 20.752C14.704 22 13.8667 22.9333 12.736 23.552C11.616 24.1707 10.192 24.48 8.464 24.48ZM27.1275 24.24C25.4315 24.24 23.9595 23.8933 22.7115 23.2C21.4635 22.5067 20.4928 21.488 19.7995 20.144C19.1168 18.7893 18.7755 17.1307 18.7755 15.168C18.7755 13.312 19.1382 11.712 19.8635 10.368C20.5888 9.024 21.5862 7.99467 22.8555 7.28C24.1248 6.55467 25.5702 6.192 27.1915 6.192C28.9408 6.192 30.4342 6.55467 31.6715 7.28C32.9195 7.99467 33.8742 9.024 34.5355 10.368C35.2075 11.712 35.5435 13.312 35.5435 15.168C35.5435 17.1307 35.1755 18.7893 34.4395 20.144C33.7035 21.488 32.7008 22.5067 31.4315 23.2C30.1622 23.8933 28.7275 24.24 27.1275 24.24ZM27.1915 20.128C28.1622 20.128 28.9728 19.7707 29.6235 19.056C30.2742 18.3307 30.5995 17.0347 30.5995 15.168C30.5995 13.4293 30.2582 12.1867 29.5755 11.44C28.9035 10.6827 28.0928 10.304 27.1435 10.304C26.1728 10.304 25.3622 10.6827 24.7115 11.44C24.0608 12.1867 23.7355 13.4293 23.7355 15.168C23.7355 16.96 24.0768 18.2347 24.7595 18.992C25.4422 19.7493 26.2528 20.128 27.1915 20.128ZM43.9575 24.208C42.5175 24.208 41.3975 23.8453 40.5975 23.12C39.7975 22.384 39.3922 21.248 39.3815 19.712L39.3335 11.904C39.3335 11.4987 39.4455 11.168 39.6695 10.912C39.9042 10.656 40.2295 10.4907 40.6455 10.416L39.3335 7.232V6.704L40.2455 1.536H44.2935V18.176C44.2935 18.9227 44.3842 19.44 44.5655 19.728C44.7575 20.016 45.1202 20.16 45.6535 20.16C46.1868 20.16 46.6295 20.1493 46.9815 20.128C47.3442 20.1067 47.6855 20.0693 48.0055 20.016V23.936C47.6215 24.0747 47.0455 24.1547 46.2775 24.176C45.5202 24.1973 44.7468 24.208 43.9575 24.208ZM37.4775 10.416V6.544H47.8935V10.416H37.4775Z" fill="#EEEEEE"/>
</svg>
