<svg width="68" height="45" viewBox="0 0 68 45" fill="none" xmlns="http://www.w3.org/2000/svg">
<g filter="url(#filter0_d_74_431)">
<path d="M18.464 30.48C16.8213 30.48 15.4187 30.192 14.256 29.616C13.0933 29.04 12.1973 28.144 11.568 26.928C10.9387 25.712 10.6027 24.1493 10.56 22.24H15.648C15.6373 23.6267 15.8453 24.5867 16.272 25.12C16.6987 25.6427 17.3973 25.904 18.368 25.904C19.008 25.904 19.5147 25.8027 19.888 25.6C20.2613 25.3973 20.528 25.04 20.688 24.528C20.8587 24.0053 20.944 23.2853 20.944 22.368V6.736H26.08V22.048C26.08 23.936 25.8027 25.504 25.248 26.752C24.704 28 23.8667 28.9333 22.736 29.552C21.616 30.1707 20.192 30.48 18.464 30.48ZM37.1275 30.24C35.4315 30.24 33.9595 29.8933 32.7115 29.2C31.4635 28.5067 30.4928 27.488 29.7995 26.144C29.1168 24.7893 28.7755 23.1307 28.7755 21.168C28.7755 19.312 29.1382 17.712 29.8635 16.368C30.5888 15.024 31.5862 13.9947 32.8555 13.28C34.1248 12.5547 35.5702 12.192 37.1915 12.192C38.9408 12.192 40.4342 12.5547 41.6715 13.28C42.9195 13.9947 43.8742 15.024 44.5355 16.368C45.2075 17.712 45.5435 19.312 45.5435 21.168C45.5435 23.1307 45.1755 24.7893 44.4395 26.144C43.7035 27.488 42.7008 28.5067 41.4315 29.2C40.1622 29.8933 38.7275 30.24 37.1275 30.24ZM37.1915 26.128C38.1622 26.128 38.9728 25.7707 39.6235 25.056C40.2742 24.3307 40.5995 23.0347 40.5995 21.168C40.5995 19.4293 40.2582 18.1867 39.5755 17.44C38.9035 16.6827 38.0928 16.304 37.1435 16.304C36.1728 16.304 35.3622 16.6827 34.7115 17.44C34.0608 18.1867 33.7355 19.4293 33.7355 21.168C33.7355 22.96 34.0768 24.2347 34.7595 24.992C35.4422 25.7493 36.2528 26.128 37.1915 26.128ZM53.9575 30.208C52.5175 30.208 51.3975 29.8453 50.5975 29.12C49.7975 28.384 49.3922 27.248 49.3815 25.712L49.3335 17.904C49.3335 17.4987 49.4455 17.168 49.6695 16.912C49.9042 16.656 50.2295 16.4907 50.6455 16.416L49.3335 13.232V12.704L50.2455 7.536H54.2935V24.176C54.2935 24.9227 54.3842 25.44 54.5655 25.728C54.7575 26.016 55.1202 26.16 55.6535 26.16C56.1868 26.16 56.6295 26.1493 56.9815 26.128C57.3442 26.1067 57.6855 26.0693 58.0055 26.016V29.936C57.6215 30.0747 57.0455 30.1547 56.2775 30.176C55.5202 30.1973 54.7468 30.208 53.9575 30.208ZM47.4775 16.416V12.544H57.8935V16.416H47.4775Z" fill="#EEEEEE"/>
</g>
<defs>
<filter id="filter0_d_74_431" x="0.559998" y="0.735962" width="67.4455" height="43.744" filterUnits="userSpaceOnUse" color-interpolation-filters="sRGB">
<feFlood flood-opacity="0" result="BackgroundImageFix"/>
<feColorMatrix in="SourceAlpha" type="matrix" values="0 0 0 0 0 0 0 0 0 0 0 0 0 0 0 0 0 0 127 0" result="hardAlpha"/>
<feOffset dy="4"/>
<feGaussianBlur stdDeviation="5"/>
<feComposite in2="hardAlpha" operator="out"/>
<feColorMatrix type="matrix" values="0 0 0 0 0 0 0 0 0 0 0 0 0 0 0 0 0 0 0.25 0"/>
<feBlend mode="normal" in2="BackgroundImageFix" result="effect1_dropShadow_74_431"/>
<feBlend mode="normal" in="SourceGraphic" in2="effect1_dropShadow_74_431" result="shape"/>
</filter>
</defs>
</svg>
