<svg width="25" height="25" viewBox="0 0 25 25" fill="none" xmlns="http://www.w3.org/2000/svg">
<path fill-rule="evenodd" clip-rule="evenodd" d="M22.5607 15.2259C19.737 15.8084 19.5429 14.8523 19.5429 14.8523C22.5243 10.4283 23.7706 4.81272 22.6951 3.43833C19.7608 -0.310729 14.6815 1.46234 14.5967 1.50837L14.5695 1.51325C14.0116 1.39744 13.3872 1.32845 12.6855 1.317C11.4078 1.29606 10.4386 1.65196 9.70317 2.20968C9.70317 2.20968 0.642158 -1.5231 1.06357 6.90436C1.15322 8.69724 3.63327 20.4701 6.59137 16.9141C7.67255 15.6138 8.71719 14.5144 8.71719 14.5144C9.23606 14.8591 9.85721 15.0349 10.5084 14.9718L10.559 14.9288C10.5433 15.0903 10.5504 15.2482 10.5792 15.4351C9.81719 16.2865 10.0411 16.436 8.51774 16.7496C6.9763 17.0673 7.88183 17.6328 8.47306 17.7807C9.18981 17.9599 10.848 18.2138 11.9684 16.6454L11.9238 16.8243C12.2223 17.0635 12.432 18.3799 12.3969 19.5733C12.3617 20.7667 12.3383 21.586 12.5735 22.2259C12.8088 22.8659 13.0433 24.3058 15.0459 23.8767C16.7193 23.5181 17.5864 22.5888 17.707 21.0387C17.7926 19.9367 17.9864 20.0996 17.9986 19.1143L18.154 18.6479C18.3332 17.1541 18.1824 16.6721 19.2134 16.8963L19.4639 16.9183C20.2227 16.9528 21.2158 16.7962 21.7987 16.5253C23.0538 15.9429 23.7982 14.9704 22.5606 15.2259H22.5607Z" fill="#336791"/>
<path fill-rule="evenodd" clip-rule="evenodd" d="M10.2336 7.70615C9.97914 7.67073 9.74865 7.70351 9.63205 7.79176C9.56643 7.84144 9.54616 7.89898 9.54072 7.93861C9.52607 8.04353 9.5996 8.15951 9.64474 8.21935C9.7725 8.38871 9.95921 8.50514 10.144 8.53079C10.1708 8.5345 10.1974 8.53629 10.2239 8.53629C10.5321 8.53629 10.8122 8.29637 10.8369 8.11926C10.8678 7.89746 10.5458 7.7496 10.2336 7.70615Z" fill="white"/>
<path fill-rule="evenodd" clip-rule="evenodd" d="M18.6635 7.71317H18.6635C18.6392 7.53931 18.3298 7.48974 18.0362 7.53056C17.7431 7.57142 17.4587 7.70374 17.4825 7.87798C17.5016 8.0135 17.7461 8.24483 18.0358 8.24478C18.0602 8.24478 18.0849 8.24315 18.1098 8.23967C18.3031 8.21289 18.445 8.09012 18.5123 8.01933C18.615 7.91155 18.6744 7.79131 18.6635 7.71317Z" fill="white"/>
<path fill-rule="evenodd" clip-rule="evenodd" d="M23.5004 15.1597C23.3928 14.8341 23.0462 14.7293 22.4705 14.8483C20.7609 15.2011 20.1487 14.9567 19.9476 14.8086C21.2764 12.7842 22.3696 10.3373 22.9593 8.05419C23.2387 6.97273 23.393 5.96839 23.4056 5.14981C23.4195 4.25118 23.2665 3.59097 22.9509 3.18763C21.6783 1.56158 19.8107 0.689393 17.5499 0.665423C15.9957 0.647964 14.6826 1.04575 14.428 1.15757C13.8919 1.02425 13.3075 0.942399 12.6713 0.931958C11.5045 0.913096 10.496 1.19243 9.66099 1.76176C9.2983 1.62681 8.36093 1.30504 7.21469 1.12041C5.23285 0.801273 3.65806 1.04305 2.53421 1.83923C1.19323 2.78928 0.574155 4.48752 0.694118 6.88667C0.73448 7.69391 1.19435 10.177 1.92019 12.555C2.87557 15.6849 3.91404 17.4568 5.00679 17.8212C5.13467 17.8639 5.28219 17.8938 5.44476 17.8938C5.84339 17.8938 6.33205 17.7141 6.84054 17.1028C7.68511 16.0867 8.47365 15.2353 8.76433 14.926C9.19388 15.1566 9.66571 15.2853 10.1484 15.2982C10.1493 15.3108 10.1506 15.3235 10.1517 15.336C10.0548 15.4509 9.97541 15.5515 9.90771 15.6375C9.57331 16.062 9.5037 16.1503 8.42723 16.372C8.12106 16.4352 7.3077 16.6028 7.29586 17.1729C7.28289 17.7957 8.25714 18.0573 8.36817 18.085C8.75501 18.1819 9.12764 18.2296 9.48304 18.2296C10.3474 18.2296 11.108 17.9455 11.7159 17.3959C11.6972 19.6164 11.7898 21.8044 12.0564 22.4711C12.2747 23.0168 12.8082 24.3506 14.4932 24.3504C14.7404 24.3504 15.0126 24.3217 15.312 24.2575C17.0705 23.8805 17.8341 23.1033 18.1295 21.3898C18.2876 20.474 18.5589 18.2872 18.6865 17.1142C18.9558 17.1982 19.3025 17.2366 19.6772 17.2366C20.4589 17.2366 21.3607 17.0705 21.9264 16.808C22.5617 16.5129 23.7084 15.7888 23.5004 15.1597ZM19.3126 7.23329C19.3068 7.5796 19.2591 7.89396 19.2086 8.22214C19.1542 8.57506 19.098 8.93995 19.0838 9.38292C19.0699 9.81399 19.1237 10.2622 19.1758 10.6956C19.281 11.5709 19.3889 12.4722 18.971 13.3615C18.9061 13.2462 18.8434 13.1203 18.7859 12.9809C18.7339 12.855 18.6212 12.6527 18.4651 12.3728C17.8574 11.2832 16.4346 8.73157 17.163 7.69036C17.3799 7.38037 17.9305 7.0618 19.3126 7.23329ZM17.6373 1.36671C19.6629 1.41145 21.2652 2.16924 22.3998 3.6189C23.2699 4.73085 22.3117 9.79041 19.538 14.1553C19.5106 14.1205 19.4827 14.0853 19.4538 14.0493C19.4423 14.0349 19.4306 14.0202 19.4188 14.0054C20.1355 12.8217 19.9953 11.6505 19.8706 10.6121C19.8193 10.1859 19.771 9.78345 19.7832 9.40543C19.796 9.00462 19.849 8.66101 19.9002 8.32868C19.9632 7.91911 20.0273 7.49539 20.0096 6.99584C20.0228 6.94346 20.0281 6.88154 20.0212 6.80806C19.9761 6.32899 19.4292 4.89544 18.3144 3.59774C17.7047 2.88806 16.8155 2.09379 15.6014 1.55808C16.1236 1.44985 16.8378 1.34892 17.6373 1.36671ZM6.30247 16.6554C5.74228 17.329 5.35539 17.1999 5.22819 17.1575C4.39922 16.881 3.43744 15.129 2.58945 12.3508C1.85569 9.94687 1.42686 7.52958 1.39296 6.85174C1.28579 4.708 1.80545 3.21393 2.93755 2.41107C4.77994 1.1045 7.80905 1.88654 9.0262 2.28319C9.00869 2.30043 8.9905 2.3166 8.97315 2.33411C6.97588 4.35126 7.02326 7.79758 7.02814 8.0082C7.02797 8.08948 7.03477 8.20456 7.04414 8.36287C7.0785 8.94248 7.14244 10.0213 6.97161 11.2431C6.8128 12.3784 7.16276 13.4896 7.9316 14.2918C8.0112 14.3748 8.09428 14.4528 8.18012 14.5261C7.83785 14.8926 7.0941 15.7031 6.30247 16.6554ZM8.43684 13.8076C7.81715 13.1611 7.53574 12.2617 7.66463 11.3399C7.84505 10.0493 7.77842 8.9253 7.74266 8.32144C7.73766 8.23696 7.73323 8.16291 7.73059 8.10448C8.02238 7.8458 9.37454 7.12125 10.3388 7.3422C10.7789 7.44302 11.047 7.74262 11.1584 8.25806C11.7354 10.9264 11.2348 12.0386 10.8326 12.9323C10.7497 13.1164 10.6714 13.2904 10.6045 13.4705L10.5527 13.6096C10.4214 13.9616 10.2993 14.2887 10.2237 14.5994C9.56495 14.5974 8.9241 14.3161 8.43684 13.8076ZM8.53789 17.4062C8.34556 17.3581 8.17255 17.2747 8.07106 17.2055C8.15582 17.1655 8.30672 17.1113 8.56837 17.0574C9.83475 16.7967 10.0303 16.6127 10.4574 16.0704C10.5553 15.9461 10.6663 15.8052 10.82 15.6335C10.8201 15.6334 10.8201 15.6334 10.8202 15.6333C11.0491 15.377 11.1538 15.4204 11.3437 15.4992C11.4977 15.5629 11.6476 15.7558 11.7084 15.9681C11.7371 16.0684 11.7694 16.2587 11.6637 16.4067C10.7716 17.6559 9.47155 17.6398 8.53789 17.4062ZM15.1653 23.5734C13.6161 23.9053 13.0676 23.1149 12.7061 22.2112C12.4728 21.6278 12.3582 18.9971 12.4395 16.092C12.4406 16.0533 12.4351 16.016 12.4244 15.9809C12.4151 15.9131 12.4009 15.8446 12.3811 15.7756C12.2601 15.3529 11.9653 14.9993 11.6117 14.8527C11.4712 14.7945 11.2132 14.6877 10.9033 14.7669C10.9694 14.4946 11.084 14.1872 11.2083 13.8542L11.2604 13.7141C11.3191 13.5561 11.3927 13.3926 11.4707 13.2194C11.8916 12.2843 12.468 11.0036 11.8424 8.11014C11.608 7.02643 10.8255 6.49723 9.63915 6.62011C8.92791 6.69371 8.27729 6.98068 7.95276 7.14521C7.88299 7.18058 7.81916 7.21471 7.75954 7.248C7.85009 6.15604 8.19235 4.11543 9.47249 2.82435C10.2784 2.01149 11.3519 1.61006 12.6597 1.63168C15.2367 1.67389 16.8892 2.99635 17.8217 4.09836C18.6253 5.04802 19.0605 6.00458 19.2342 6.52047C17.9282 6.38771 17.0399 6.64554 16.5896 7.28926C15.61 8.68952 17.1255 11.4074 17.8539 12.7136C17.9875 12.953 18.1028 13.1599 18.139 13.2478C18.3762 13.8226 18.6833 14.2064 18.9075 14.4865C18.9762 14.5724 19.0429 14.6556 19.0936 14.7283C18.698 14.8424 17.9875 15.1058 18.0522 16.4229C18 17.0838 17.6286 20.1778 17.44 21.2709C17.191 22.7151 16.6596 23.253 15.1653 23.5734ZM21.6317 16.1733C21.2272 16.3611 20.5503 16.502 19.9073 16.5322C19.1971 16.5654 18.8355 16.4526 18.7505 16.3832C18.7105 15.5625 19.0161 15.4767 19.3394 15.386C19.3902 15.3717 19.4397 15.3578 19.4876 15.3411C19.5173 15.3653 19.5499 15.3893 19.5855 15.4128C20.1564 15.7896 21.1746 15.8302 22.6119 15.5335C22.6172 15.5324 22.6225 15.5314 22.6277 15.5303C22.4339 15.7116 22.1021 15.9549 21.6317 16.1733Z" fill="white"/>
</svg>
