<svg width="139" height="18" viewBox="0 0 139 18" fill="none" xmlns="http://www.w3.org/2000/svg">
<path d="M16.4636 5.552C16.4636 6.56 16.1916 7.472 15.6476 8.288C15.1036 9.104 14.3116 9.704 13.2716 10.088L16.9436 17H10.9916L8.06363 10.976H6.09563V17H0.791625V0.487999H10.8956C12.0796 0.487999 13.0876 0.719999 13.9196 1.184C14.7676 1.632 15.3996 2.248 15.8156 3.032C16.2476 3.8 16.4636 4.64 16.4636 5.552ZM11.0636 5.768C11.0636 5.336 10.9196 4.976 10.6316 4.688C10.3436 4.4 9.99163 4.256 9.57563 4.256H6.09563V7.304H9.57563C9.99163 7.304 10.3436 7.16 10.6316 6.872C10.9196 6.568 11.0636 6.2 11.0636 5.768ZM30.5353 17L29.8393 14.672H24.0553L23.3593 17H17.9353L23.9593 0.487999H30.1273L36.1513 17H30.5353ZM25.1593 10.976H28.7353L27.0073 5.096H26.9113L25.1593 10.976ZM47.415 0.487999C48.439 0.487999 49.351 0.727999 50.151 1.208C50.951 1.672 51.575 2.32 52.023 3.152C52.471 3.968 52.695 4.888 52.695 5.912V6.224C52.695 7.248 52.471 8.176 52.023 9.008C51.575 9.84 50.951 10.496 50.151 10.976C49.351 11.44 48.439 11.672 47.415 11.672H43.455V17H38.151V0.487999H47.415ZM43.455 7.808H45.639C46.199 7.808 46.615 7.664 46.887 7.376C47.175 7.088 47.319 6.696 47.319 6.2V6.008C47.319 5.496 47.175 5.104 46.887 4.832C46.615 4.544 46.199 4.4 45.639 4.4H43.455V7.808ZM74.5995 17V10.736H68.7675V17H63.4635V0.487999H68.7675V6.512H74.5995V0.487999H79.9035V17H74.5995ZM99.8957 10.352C99.8957 12.608 99.1837 14.328 97.7597 15.512C96.3357 16.696 94.3117 17.288 91.6877 17.288C89.0637 17.288 87.0317 16.696 85.5917 15.512C84.1677 14.328 83.4557 12.608 83.4557 10.352V0.487999H88.7597V10.28C88.7597 11.208 89.0077 11.952 89.5037 12.512C89.9997 13.056 90.7197 13.328 91.6637 13.328C92.6077 13.328 93.3277 13.048 93.8237 12.488C94.3357 11.928 94.5917 11.192 94.5917 10.28V0.487999H99.8957V10.352ZM115.256 17L108.32 8.984V17H103.448V0.487999H108.08L115.016 8.624V0.487999H119.888V17H115.256ZM132.944 4.712V17H127.64V4.712H122.216V0.487999H138.344V4.712H132.944Z" fill="#EC1C24"/>
</svg>
