<svg width="30" height="20" viewBox="0 0 30 20" fill="none" xmlns="http://www.w3.org/2000/svg">
<g clip-path="url(#clip0_26_206)">
<path fill-rule="evenodd" clip-rule="evenodd" d="M29.5282 0.688217L25.5668 0.0242388C24.1581 -0.624989 5.12112 11.9833 5.12112 11.9833L4.81164 12.8833L27.0177 2.22276C20.1224 6.48205 0.773494 18.3698 0.773494 18.3698C0.60285 18.4828 0.456428 18.6282 0.342693 18.7977C0.192523 19.0795 0.0801539 19.3796 0.0084505 19.6904C-0.00211736 19.7295 -0.00278379 19.7707 0.00650962 19.8101C0.0158031 19.8496 0.034768 19.8861 0.0617195 19.9166C0.0886711 19.9469 0.122773 19.9703 0.160994 19.9844C0.199214 19.9987 0.240368 20.0032 0.280796 19.9978C2.02628 19.7051 9.20878 18.4903 11.8258 17.7206C18.2828 15.8221 20.8132 13.3309 22.321 11.0267C24.0665 8.356 28.8276 1.32269 29.501 0.732483L29.5357 0.6956L29.5282 0.688217ZM20.6349 8.84533C20.1398 9.87822 19.3401 11.5062 17.4163 12.8268C15.3836 14.2236 9.62967 15.9868 6.77006 16.55L20.7067 8.68061C20.6797 8.73411 20.6557 8.78911 20.6349 8.84533Z" fill="url(#paint0_linear_26_206)"/>
</g>
<defs>
<linearGradient id="paint0_linear_26_206" x1="14.7678" y1="1.84844e-07" x2="11.6667" y2="24.7222" gradientUnits="userSpaceOnUse">
<stop stop-color="#2AD699"/>
<stop offset="1" stop-color="#2CBBCE"/>
</linearGradient>
<clipPath id="clip0_26_206">
<rect width="30" height="20" fill="white"/>
</clipPath>
</defs>
</svg>
