<svg width="25" height="15" viewBox="0 0 25 15" fill="none" xmlns="http://www.w3.org/2000/svg">
<path d="M12.5 0C9.16667 0 7.08333 1.66667 6.25 5C7.5 3.33333 8.95833 2.70833 10.625 3.125C11.5759 3.36273 12.2556 4.05259 13.0079 4.81625C14.2335 6.06023 15.6519 7.5 18.75 7.5C22.0833 7.5 24.1667 5.83333 25 2.5C23.75 4.16667 22.2917 4.79167 20.625 4.375C19.6741 4.13727 18.9944 3.44741 18.2421 2.68375C17.0165 1.43977 15.5981 0 12.5 0ZM6.25 7.5C2.91667 7.5 0.833333 9.16667 0 12.5C1.25 10.8333 2.70833 10.2083 4.375 10.625C5.32593 10.8627 6.0056 11.5526 6.75792 12.3162C7.98347 13.5602 9.4019 15 12.5 15C15.8333 15 17.9167 13.3333 18.75 10C17.5 11.6667 16.0417 12.2917 14.375 11.875C13.4241 11.6373 12.7444 10.9474 11.9921 10.1837C10.7665 8.93977 9.3481 7.5 6.25 7.5Z" fill="#38BDF8"/>
<path d="M12.5 0C9.16667 0 7.08333 1.66667 6.25 5C7.5 3.33333 8.95833 2.70833 10.625 3.125C11.5759 3.36273 12.2556 4.05259 13.0079 4.81625C14.2335 6.06023 15.6519 7.5 18.75 7.5C22.0833 7.5 24.1667 5.83333 25 2.5C23.75 4.16667 22.2917 4.79167 20.625 4.375C19.6741 4.13727 18.9944 3.44741 18.2421 2.68375C17.0165 1.43977 15.5981 0 12.5 0ZM6.25 7.5C2.91667 7.5 0.833333 9.16667 0 12.5C1.25 10.8333 2.70833 10.2083 4.375 10.625C5.32593 10.8627 6.0056 11.5526 6.75792 12.3162C7.98347 13.5602 9.4019 15 12.5 15C15.8333 15 17.9167 13.3333 18.75 10C17.5 11.6667 16.0417 12.2917 14.375 11.875C13.4241 11.6373 12.7444 10.9474 11.9921 10.1837C10.7665 8.93977 9.3481 7.5 6.25 7.5Z" fill="#38BDF8"/>
</svg>
