<svg width="20" height="20" viewBox="0 0 20 20" fill="none" xmlns="http://www.w3.org/2000/svg">
<g clip-path="url(#clip0_18_106)">
<path fill-rule="evenodd" clip-rule="evenodd" d="M18.4375 0H1.5625C0.699555 0 0 0.699555 0 1.5625V18.4375C0 19.3004 0.699555 20 1.5625 20H18.4375C19.3004 20 20 19.3004 20 18.4375V1.5625C20 0.699555 19.3004 0 18.4375 0ZM11.7592 17.8199V15.6621C12.1506 15.9903 12.5758 16.2364 13.0348 16.4005C13.4937 16.5646 13.957 16.6466 14.4249 16.6466C14.6994 16.6466 14.939 16.6219 15.1437 16.5724C15.3484 16.523 15.5194 16.4545 15.6566 16.3668C15.7938 16.2791 15.8962 16.1757 15.9636 16.0566C16.0311 15.9375 16.0648 15.8082 16.0648 15.6689C16.0648 15.4801 16.0109 15.3115 15.9029 15.1631C15.7949 15.0148 15.6476 14.8777 15.4609 14.7518C15.2741 14.6259 15.0526 14.5046 14.7961 14.3877C14.5397 14.2708 14.263 14.1517 13.966 14.0303C13.2102 13.7156 12.6467 13.3312 12.2755 12.8773C11.9043 12.4232 11.7188 11.8748 11.7188 11.232C11.7188 10.7284 11.82 10.2958 12.0224 9.93391C12.2249 9.57203 12.5005 9.27422 12.8491 9.04039C13.1978 8.80664 13.6016 8.63469 14.0605 8.52461C14.5195 8.41445 15.0053 8.35938 15.5182 8.35938C16.0221 8.35938 16.4687 8.38969 16.8578 8.45039C17.247 8.51109 17.6058 8.60438 17.9342 8.73023V10.7464C17.7723 10.6341 17.5956 10.5352 17.4045 10.4498C17.2132 10.3643 17.0164 10.2935 16.814 10.2373C16.6115 10.1811 16.4102 10.1395 16.2099 10.1126C16.0098 10.0856 15.8197 10.0721 15.6397 10.0721C15.3923 10.0721 15.1673 10.0957 14.9648 10.1429C14.7623 10.1902 14.5914 10.2564 14.452 10.3419C14.3125 10.4273 14.2045 10.5295 14.128 10.6487C14.0515 10.7678 14.0133 10.9015 14.0133 11.0498C14.0133 11.2117 14.056 11.3566 14.1415 11.4848C14.227 11.6129 14.3484 11.7343 14.5059 11.8489C14.6634 11.9636 14.8546 12.0759 15.0795 12.1861C15.3045 12.2962 15.5587 12.4097 15.8421 12.5266C16.2291 12.6884 16.5766 12.8604 16.8848 13.0424C17.193 13.2245 17.4573 13.4302 17.6777 13.6595C17.8982 13.8887 18.067 14.1505 18.1839 14.445C18.3009 14.7395 18.3594 15.0823 18.3594 15.4734C18.3594 16.0128 18.257 16.4657 18.0523 16.832C17.8476 17.1984 17.5698 17.4952 17.2188 17.7222C16.868 17.9491 16.4596 18.1121 15.994 18.211C15.5284 18.3099 15.0368 18.3594 14.5195 18.3594C13.9885 18.3594 13.4835 18.3145 13.0044 18.2245C12.5252 18.1346 12.1102 17.9998 11.7592 17.8199ZM10.9375 10.2923H8.16266V18.2031H5.96443V10.2923H3.20312V8.51562H10.9375V10.2923Z" fill="#3178C6"/>
</g>
<defs>
<clipPath id="clip0_18_106">
<rect width="20" height="20" fill="white"/>
</clipPath>
</defs>
</svg>
