<svg width="50" height="50" viewBox="0 0 50 50" fill="none" xmlns="http://www.w3.org/2000/svg">
<rect width="50" height="50" rx="10" fill="#191919"/>
<path d="M17.0227 37V13.7273H26.2045C27.9621 13.7273 29.4621 14.0417 30.7045 14.6705C31.9545 15.2917 32.9053 16.1742 33.5568 17.3182C34.2159 18.4545 34.5455 19.7917 34.5455 21.3295C34.5455 22.875 34.2121 24.2045 33.5455 25.3182C32.8788 26.4242 31.9129 27.2727 30.6477 27.8636C29.3902 28.4545 27.8674 28.75 26.0795 28.75H19.9318V24.7955H25.2841C26.2235 24.7955 27.0038 24.6667 27.625 24.4091C28.2462 24.1515 28.7083 23.7652 29.0114 23.25C29.322 22.7348 29.4773 22.0947 29.4773 21.3295C29.4773 20.5568 29.322 19.9053 29.0114 19.375C28.7083 18.8447 28.2424 18.4432 27.6136 18.1705C26.9924 17.8902 26.2083 17.75 25.2614 17.75H21.9432V37H17.0227ZM29.5909 26.4091L35.375 37H29.9432L24.2841 26.4091H29.5909Z" fill="white"/>
</svg>
